<svg xmlns="http://www.w3.org/2000/svg" viewBox="0 0 1200 1500" width="1200" height="1500">
  <defs>
    <linearGradient id="sky" x1="0" y1="0" x2="0" y2="1"><stop offset="0" stop-color="#E6E2DC"/><stop offset="1" stop-color="#F5F1E8"/></linearGradient>
  </defs>
  
    <rect width="1200" height="1500" fill="#EDE7DC"/>
    <rect y="1080" width="1200" height="420" fill="#BFA282"/>
    <rect y="1074" width="1200" height="6" fill="#7C7266" opacity="0.35"/>
    <g transform="translate(365.5363077572885,240)">
      <rect x="-14" y="-14" width="340" height="628" fill="#F7F3EA"/>
      <rect width="312" height="600" fill="#E6E2DC"/>
      <path d="M0,600 L0,290.5 L20,293.2 L40,292.6 L60,287.2 L80,281.4 L100,282.1 L120,293.1 L140,312.2 L160,332.4 L180,346.4 L200,352.2 L220,353.7 L240,357.3 L260,366.3 L280,378.3 L300,386.6 L312,600 Z" fill="#A89BB0"/>
      <path d="M0,600 L0,412.2 L20,397.8 L40,392.8 L60,393.5 L80,395.7 L100,398.5 L120,404.7 L140,418.3 L160,439.8 L180,464.5 L200,483.9 L220,490.4 L240,481.5 L260,461.3 L280,438.0 L300,419.1 L312,600 Z" fill="#3F4A33"/>
      <rect x="152" width="8" height="600" fill="#F7F3EA"/>
      <rect y="296" width="312" height="8" fill="#F7F3EA"/>
    </g>
    <rect x="672.0000000000001" y="780" width="384" height="300" rx="18" fill="#A89BB0"/>
    <rect x="648" y="660" width="432" height="150" rx="18" fill="#A89BB0" opacity="0.82"/>
    <rect x="120" y="1200" width="408.00000000000006" height="180" fill="#7C7266" opacity="0.2"/>
    
  <g transform="translate(420,105.00000000000001)">
    <rect width="360" height="60" fill="#F7F3EA" opacity="0.9"/>
    <text x="24" y="24" font-family="Helvetica, Arial, sans-serif" font-size="12" letter-spacing="3" fill="#8C5A2E">PLACEHOLDER IMAGE</text>
    <text x="24" y="46" font-family="Georgia, 'Times New Roman', serif" font-size="20" fill="#26311F">Lodge bedroom</text>
  </g>
</svg>
