<svg xmlns="http://www.w3.org/2000/svg" viewBox="0 0 1200 1500" width="1200" height="1500">
  <defs>
    <linearGradient id="sky" x1="0" y1="0" x2="0" y2="1"><stop offset="0" stop-color="#E6E2DC"/><stop offset="1" stop-color="#F5F1E8"/></linearGradient>
  </defs>
  
    <rect width="1200" height="1500" fill="#EDE7DC"/>
    <rect y="1080" width="1200" height="420" fill="#BFA282"/>
    <rect y="1074" width="1200" height="6" fill="#7C7266" opacity="0.35"/>
    <g transform="translate(391.15671017687464,240)">
      <rect x="-14" y="-14" width="340" height="628" fill="#F7F3EA"/>
      <rect width="312" height="600" fill="#E6E2DC"/>
      <path d="M0,600 L0,292.5 L20,288.4 L40,280.3 L60,283.1 L80,301.1 L100,322.5 L120,333.2 L140,334.1 L160,338.6 L180,355.1 L200,375.4 L220,384.2 L240,377.6 L260,367.9 L280,367.3 L300,373.1 L312,600 Z" fill="#A89BB0"/>
      <path d="M0,600 L0,384.6 L20,391.5 L40,408.1 L60,431.6 L80,456.5 L100,476.3 L120,486.1 L140,484.5 L160,474.0 L180,459.1 L200,444.2 L220,431.7 L240,421.7 L260,412.3 L280,402.2 L300,391.9 L312,600 Z" fill="#3F4A33"/>
      <rect x="152" width="8" height="600" fill="#F7F3EA"/>
      <rect y="296" width="312" height="8" fill="#F7F3EA"/>
    </g>
    <rect x="672.0000000000001" y="780" width="384" height="300" rx="18" fill="#A89BB0"/>
    <rect x="648" y="660" width="432" height="150" rx="18" fill="#A89BB0" opacity="0.82"/>
    <rect x="120" y="1200" width="408.00000000000006" height="180" fill="#7C7266" opacity="0.2"/>
    
  <g transform="translate(420,105.00000000000001)">
    <rect width="360" height="60" fill="#F7F3EA" opacity="0.9"/>
    <text x="24" y="24" font-family="Helvetica, Arial, sans-serif" font-size="12" letter-spacing="3" fill="#8C5A2E">PLACEHOLDER IMAGE</text>
    <text x="24" y="46" font-family="Georgia, 'Times New Roman', serif" font-size="20" fill="#26311F">Cottage bedroom</text>
  </g>
</svg>
