<svg xmlns="http://www.w3.org/2000/svg" viewBox="0 0 1600 1067" width="1600" height="1067">
  <defs>
    <linearGradient id="sky" x1="0" y1="0" x2="0" y2="1"><stop offset="0" stop-color="#E3E8DF"/><stop offset="1" stop-color="#F5F2EA"/></linearGradient>
  </defs>
  
    <rect width="1600" height="1067" fill="url(#sky)"/>
    <circle cx="521.6728184015236" cy="277.42" r="96.03" fill="#F2EBD6" opacity="0.9"/>
    <path d="M0,1067 L0,560.6 L20,551.1 L40,541.7 L60,532.3 L80,523.1 L100,514.2 L120,505.7 L140,497.8 L160,490.3 L180,483.6 L200,477.6 L220,472.3 L240,467.9 L260,464.3 L280,461.6 L300,459.8 L320,458.9 L340,458.7 L360,459.5 L380,460.9 L400,463.1 L420,466.0 L440,469.5 L460,473.5 L480,478.0 L500,482.8 L520,487.9 L540,493.3 L560,498.9 L580,504.5 L600,510.1 L620,515.7 L640,521.3 L660,526.7 L680,532.0 L700,537.1 L720,541.9 L740,546.6 L760,551.1 L780,555.4 L800,559.5 L820,563.5 L840,567.3 L860,571.0 L880,574.6 L900,578.1 L920,581.7 L940,585.2 L960,588.7 L980,592.2 L1000,595.8 L1020,599.4 L1040,603.1 L1060,606.8 L1080,610.5 L1100,614.2 L1120,617.8 L1140,621.4 L1160,624.8 L1180,628.0 L1200,631.0 L1220,633.7 L1240,636.0 L1260,637.8 L1280,639.2 L1300,640.1 L1320,640.3 L1340,639.9 L1360,638.9 L1380,637.0 L1400,634.5 L1420,631.2 L1440,627.1 L1460,622.2 L1480,616.7 L1500,610.4 L1520,603.5 L1540,596.0 L1560,587.9 L1580,579.4 L1600,570.5 L1600,1067 Z" fill="#C8D0C0"/>
    <path d="M467,646 L485,698 L449,698 Z" fill="#6C7E57" opacity="0.85"/><path d="M1479,687 L1494,731 L1464,731 Z" fill="#6C7E57" opacity="0.85"/><path d="M995,587 L1006,620 L983,620 Z" fill="#6C7E57" opacity="0.85"/><path d="M1206,607 L1221,650 L1191,650 Z" fill="#6C7E57" opacity="0.85"/><path d="M666,575 L679,612 L653,612 Z" fill="#6C7E57" opacity="0.85"/><path d="M408,667 L425,716 L391,716 Z" fill="#6C7E57" opacity="0.85"/><path d="M225,677 L242,728 L208,728 Z" fill="#6C7E57" opacity="0.85"/><path d="M431,653 L448,705 L413,705 Z" fill="#6C7E57" opacity="0.85"/><path d="M689,565 L702,605 L675,605 Z" fill="#6C7E57" opacity="0.85"/><path d="M91,654 L114,723 L67,723 Z" fill="#6C7E57" opacity="0.85"/>
    <path d="M0,1067 L0,716.4 L20,716.7 L40,716.8 L60,716.9 L80,717.1 L100,717.3 L120,717.7 L140,718.3 L160,719.0 L180,719.9 L200,720.8 L220,721.7 L240,722.5 L260,723.0 L280,723.2 L300,722.9 L320,721.9 L340,720.3 L360,717.9 L380,714.6 L400,710.4 L420,705.2 L440,699.2 L460,692.3 L480,684.6 L500,676.3 L520,667.4 L540,658.2 L560,648.8 L580,639.5 L600,630.3 L620,621.5 L640,613.3 L660,605.8 L680,599.1 L700,593.5 L720,588.9 L740,585.5 L760,583.2 L780,582.0 L800,581.8 L820,582.7 L840,584.5 L860,587.0 L880,590.2 L900,593.8 L920,597.8 L940,602.0 L960,606.2 L980,610.4 L1000,614.4 L1020,618.2 L1040,621.7 L1060,625.0 L1080,628.0 L1100,630.7 L1120,633.3 L1140,635.8 L1160,638.3 L1180,640.9 L1200,643.6 L1220,646.7 L1240,650.2 L1260,654.1 L1280,658.6 L1300,663.6 L1320,669.2 L1340,675.3 L1360,681.9 L1380,688.8 L1400,696.1 L1420,703.5 L1440,710.8 L1460,718.0 L1480,724.9 L1500,731.2 L1520,736.8 L1540,741.6 L1560,745.4 L1580,748.1 L1600,749.6 L1600,1067 Z" fill="#9FAD8E"/>
    <path d="M0,1067 L0,860.5 L20,860.5 L40,859.5 L60,857.3 L80,854.1 L100,850.0 L120,844.9 L140,839.2 L160,832.8 L180,826.0 L200,819.0 L220,812.0 L240,805.1 L260,798.5 L280,792.4 L300,786.8 L320,781.8 L340,777.5 L360,773.8 L380,770.7 L400,768.2 L420,766.2 L440,764.5 L460,763.1 L480,761.7 L500,760.4 L520,758.9 L540,757.1 L560,755.1 L580,752.7 L600,750.0 L620,747.0 L640,743.7 L660,740.2 L680,736.7 L700,733.3 L720,730.1 L740,727.3 L760,725.0 L780,723.5 L800,722.8 L820,723.0 L840,724.2 L860,726.5 L880,729.8 L900,734.1 L920,739.4 L940,745.4 L960,752.1 L980,759.2 L1000,766.7 L1020,774.3 L1040,781.8 L1060,789.1 L1080,796.0 L1100,802.3 L1120,808.0 L1140,813.0 L1160,817.1 L1180,820.6 L1200,823.3 L1220,825.3 L1240,826.8 L1260,827.9 L1280,828.6 L1300,829.2 L1320,829.7 L1340,830.2 L1360,831.0 L1380,831.9 L1400,833.2 L1420,834.8 L1440,836.6 L1460,838.7 L1480,840.9 L1500,843.2 L1520,845.3 L1540,847.2 L1560,848.7 L1580,849.7 L1600,850.0 L1600,1067 Z" fill="#6C7E57"/>
    <g>
    <rect x="647.9197426661102" y="629.8" width="221" height="127.5" fill="#EFE7D8"/>
    <path d="M639.4197426661102,629.8 L681.9197426661102,570.3 L834.9197426661102,570.3 L877.4197426661102,629.8 Z" fill="#7C7F7A"/>
    <rect x="690.4197426661102" y="548.1999999999999" width="18.7" height="28.9" fill="#7C7F7A"/>
    <rect x="807.7197426661102" y="548.1999999999999" width="18.7" height="28.9" fill="#7C7F7A"/>
    <rect x="666.6197426661103" y="651.9" width="15.299999999999999" height="23.8" fill="#4A4F45" opacity="0.7"/><rect x="707.4197426661102" y="651.9" width="15.299999999999999" height="23.8" fill="#4A4F45" opacity="0.7"/><rect x="748.2197426661102" y="651.9" width="15.299999999999999" height="23.8" fill="#4A4F45" opacity="0.7"/><rect x="789.0197426661102" y="651.9" width="15.299999999999999" height="23.8" fill="#4A4F45" opacity="0.7"/><rect x="829.8197426661102" y="651.9" width="15.299999999999999" height="23.8" fill="#4A4F45" opacity="0.7"/><rect x="666.6197426661103" y="702.9" width="15.299999999999999" height="23.8" fill="#4A4F45" opacity="0.7"/><rect x="707.4197426661102" y="702.9" width="15.299999999999999" height="23.8" fill="#4A4F45" opacity="0.7"/><rect x="748.2197426661102" y="702.9" width="15.299999999999999" height="23.8" fill="#4A4F45" opacity="0.7"/><rect x="789.0197426661102" y="702.9" width="15.299999999999999" height="23.8" fill="#4A4F45" opacity="0.7"/><rect x="829.8197426661102" y="702.9" width="15.299999999999999" height="23.8" fill="#4A4F45" opacity="0.7"/>
  </g>
    <path d="M403,833 L429,910 L377,910 Z" fill="#33452B" opacity="0.85"/><path d="M1093,831 L1141,971 L1046,971 Z" fill="#33452B" opacity="0.85"/><path d="M1179,851 L1216,958 L1143,958 Z" fill="#33452B" opacity="0.85"/><path d="M567,788 L612,920 L522,920 Z" fill="#33452B" opacity="0.85"/><path d="M209,808 L232,876 L186,876 Z" fill="#33452B" opacity="0.85"/><path d="M709,859 L735,935 L684,935 Z" fill="#33452B" opacity="0.85"/>
    <path d="M0,1067 L0,867.3 L20,864.7 L40,862.7 L60,861.3 L80,860.5 L100,860.4 L120,861.0 L140,862.3 L160,864.2 L180,866.6 L200,869.6 L220,872.9 L240,876.6 L260,880.4 L280,884.3 L300,888.1 L320,891.9 L340,895.3 L360,898.6 L380,901.4 L400,903.9 L420,906.1 L440,907.8 L460,909.3 L480,910.5 L500,911.5 L520,912.4 L540,913.2 L560,914.1 L580,915.2 L600,916.5 L620,918.2 L640,920.1 L660,922.5 L680,925.3 L700,928.5 L720,932.0 L740,935.9 L760,940.1 L780,944.4 L800,948.7 L820,953.1 L840,957.3 L860,961.2 L880,964.7 L900,967.8 L920,970.3 L940,972.2 L960,973.4 L980,974.0 L1000,973.9 L1020,973.1 L1040,971.7 L1060,969.8 L1080,967.4 L1100,964.7 L1120,961.7 L1140,958.5 L1160,955.4 L1180,952.2 L1200,949.3 L1220,946.5 L1240,944.0 L1260,941.9 L1280,940.0 L1300,938.5 L1320,937.3 L1340,936.4 L1360,935.6 L1380,934.9 L1400,934.3 L1420,933.5 L1440,932.7 L1460,931.5 L1480,930.1 L1500,928.3 L1520,926.0 L1540,923.3 L1560,920.1 L1580,916.4 L1600,912.4 L1600,1067 Z" fill="#33452B"/>
  <g transform="translate(574.5,74.69000000000001)">
    <rect width="451" height="60" fill="#F7F3EA" opacity="0.9"/>
    <text x="24" y="24" font-family="Helvetica, Arial, sans-serif" font-size="12" letter-spacing="3" fill="#8C5A2E">PLACEHOLDER IMAGE</text>
    <text x="24" y="46" font-family="Georgia, 'Times New Roman', serif" font-size="20" fill="#26311F">Muir of Pearsie Cottage</text>
  </g>
</svg>
