<svg xmlns="http://www.w3.org/2000/svg" viewBox="0 0 1600 1067" width="1600" height="1067">
  <defs>
    <linearGradient id="sky" x1="0" y1="0" x2="0" y2="1"><stop offset="0" stop-color="#DCE2E1"/><stop offset="1" stop-color="#F1F1EC"/></linearGradient>
  </defs>
  
    <rect width="1600" height="1067" fill="url(#sky)"/>
    <circle cx="697.9404591563534" cy="277.42" r="96.03" fill="#EEF0EA" opacity="0.9"/>
    <path d="M0,1067 L0,536.7 L20,532.8 L40,528.6 L60,524.1 L80,519.0 L100,513.6 L120,507.8 L140,501.7 L160,495.3 L180,488.9 L200,482.6 L220,476.5 L240,470.9 L260,465.9 L280,461.8 L300,458.7 L320,456.8 L340,456.2 L360,457.0 L380,459.2 L400,462.9 L420,468.0 L440,474.5 L460,482.2 L480,491.0 L500,500.6 L520,511.0 L540,521.8 L560,532.8 L580,543.8 L600,554.5 L620,564.8 L640,574.4 L660,583.2 L680,591.1 L700,598.0 L720,603.9 L740,608.7 L760,612.6 L780,615.5 L800,617.6 L820,619.0 L840,619.9 L860,620.3 L880,620.5 L900,620.5 L920,620.6 L940,620.7 L960,621.0 L980,621.4 L1000,622.1 L1020,622.9 L1040,623.8 L1060,624.7 L1080,625.4 L1100,625.9 L1120,626.1 L1140,625.6 L1160,624.4 L1180,622.4 L1200,619.5 L1220,615.5 L1240,610.3 L1260,604.1 L1280,596.8 L1300,588.4 L1320,579.1 L1340,569.0 L1360,558.3 L1380,547.2 L1400,535.9 L1420,524.7 L1440,513.7 L1460,503.3 L1480,493.6 L1500,484.9 L1520,477.3 L1540,471.0 L1560,466.0 L1580,462.4 L1600,460.2 L1600,1067 Z" fill="#CBD3D1"/>
    <path d="M621,537 L644,604 L598,604 Z" fill="#6F8077" opacity="0.85"/><path d="M1237,666 L1249,702 L1225,702 Z" fill="#6F8077" opacity="0.85"/><path d="M400,615 L419,669 L382,669 Z" fill="#6F8077" opacity="0.85"/><path d="M368,632 L383,675 L354,675 Z" fill="#6F8077" opacity="0.85"/><path d="M917,560 L939,623 L895,623 Z" fill="#6F8077" opacity="0.85"/><path d="M1028,601 L1049,663 L1007,663 Z" fill="#6F8077" opacity="0.85"/><path d="M110,699 L121,732 L98,732 Z" fill="#6F8077" opacity="0.85"/><path d="M241,641 L259,694 L223,694 Z" fill="#6F8077" opacity="0.85"/><path d="M382,641 L392,672 L371,672 Z" fill="#6F8077" opacity="0.85"/><path d="M1495,684 L1516,747 L1473,747 Z" fill="#6F8077" opacity="0.85"/>
    <path d="M0,1067 L0,746.3 L20,744.1 L40,740.8 L60,736.5 L80,731.6 L100,726.1 L120,720.2 L140,714.2 L160,708.3 L180,702.6 L200,697.2 L220,692.2 L240,687.7 L260,683.7 L280,680.2 L300,677.0 L320,674.1 L340,671.3 L360,668.6 L380,665.7 L400,662.6 L420,659.1 L440,655.1 L460,650.6 L480,645.4 L500,639.7 L520,633.4 L540,626.7 L560,619.6 L580,612.5 L600,605.3 L620,598.4 L640,591.9 L660,586.2 L680,581.3 L700,577.4 L720,574.8 L740,573.5 L760,573.6 L780,575.1 L800,578.0 L820,582.2 L840,587.6 L860,594.0 L880,601.2 L900,609.1 L920,617.3 L940,625.7 L960,634.0 L980,642.1 L1000,649.7 L1020,656.8 L1040,663.2 L1060,668.9 L1080,673.8 L1100,678.0 L1120,681.6 L1140,684.6 L1160,687.2 L1180,689.5 L1200,691.7 L1220,693.9 L1240,696.2 L1260,698.8 L1280,701.7 L1300,704.9 L1320,708.6 L1340,712.5 L1360,716.8 L1380,721.1 L1400,725.5 L1420,729.7 L1440,733.6 L1460,736.9 L1480,739.5 L1500,741.2 L1520,741.8 L1540,741.2 L1560,739.3 L1580,736.2 L1600,731.7 L1600,1067 Z" fill="#A6B3AF"/>
    <path d="M0,1067 L0,787.3 L20,782.2 L40,777.1 L60,772.3 L80,767.6 L100,763.2 L120,759.1 L140,755.3 L160,751.8 L180,748.6 L200,745.7 L220,743.2 L240,741.0 L260,739.1 L280,737.6 L300,736.4 L320,735.6 L340,735.0 L360,734.7 L380,734.7 L400,734.9 L420,735.3 L440,736.0 L460,736.8 L480,737.8 L500,738.9 L520,740.2 L540,741.5 L560,742.9 L580,744.4 L600,745.9 L620,747.5 L640,749.1 L660,750.8 L680,752.4 L700,754.1 L720,755.8 L740,757.5 L760,759.2 L780,761.0 L800,762.8 L820,764.6 L840,766.6 L860,768.5 L880,770.6 L900,772.8 L920,775.1 L940,777.4 L960,779.9 L980,782.6 L1000,785.3 L1020,788.2 L1040,791.3 L1060,794.4 L1080,797.7 L1100,801.1 L1120,804.6 L1140,808.2 L1160,811.9 L1180,815.6 L1200,819.4 L1220,823.1 L1240,826.8 L1260,830.5 L1280,834.1 L1300,837.5 L1320,840.9 L1340,844.0 L1360,846.9 L1380,849.5 L1400,851.9 L1420,853.9 L1440,855.6 L1460,857.0 L1480,857.9 L1500,858.4 L1520,858.5 L1540,858.2 L1560,857.4 L1580,856.2 L1600,854.5 L1600,1067 Z" fill="#6F8077"/>
    <g>
    <rect x="620.6400710015" y="658.3" width="221" height="127.5" fill="#EFE7D8"/>
    <path d="M612.1400710015,658.3 L654.6400710015,598.8 L807.6400710015,598.8 L850.1400710015,658.3 Z" fill="#7C7F7A"/>
    <rect x="663.1400710015" y="576.6999999999999" width="18.7" height="28.9" fill="#7C7F7A"/>
    <rect x="780.4400710015" y="576.6999999999999" width="18.7" height="28.9" fill="#7C7F7A"/>
    <rect x="639.3400710015001" y="680.4" width="15.299999999999999" height="23.8" fill="#4A4F45" opacity="0.7"/><rect x="680.1400710015" y="680.4" width="15.299999999999999" height="23.8" fill="#4A4F45" opacity="0.7"/><rect x="720.9400710015" y="680.4" width="15.299999999999999" height="23.8" fill="#4A4F45" opacity="0.7"/><rect x="761.7400710015" y="680.4" width="15.299999999999999" height="23.8" fill="#4A4F45" opacity="0.7"/><rect x="802.5400710015" y="680.4" width="15.299999999999999" height="23.8" fill="#4A4F45" opacity="0.7"/><rect x="639.3400710015001" y="731.4" width="15.299999999999999" height="23.8" fill="#4A4F45" opacity="0.7"/><rect x="680.1400710015" y="731.4" width="15.299999999999999" height="23.8" fill="#4A4F45" opacity="0.7"/><rect x="720.9400710015" y="731.4" width="15.299999999999999" height="23.8" fill="#4A4F45" opacity="0.7"/><rect x="761.7400710015" y="731.4" width="15.299999999999999" height="23.8" fill="#4A4F45" opacity="0.7"/><rect x="802.5400710015" y="731.4" width="15.299999999999999" height="23.8" fill="#4A4F45" opacity="0.7"/>
  </g>
    <path d="M291,897 L313,963 L269,963 Z" fill="#2F3D34" opacity="0.85"/><path d="M153,813 L208,972 L99,972 Z" fill="#2F3D34" opacity="0.85"/><path d="M157,830 L206,972 L109,972 Z" fill="#2F3D34" opacity="0.85"/><path d="M145,888 L173,972 L117,972 Z" fill="#2F3D34" opacity="0.85"/><path d="M1510,818 L1556,951 L1465,951 Z" fill="#2F3D34" opacity="0.85"/><path d="M805,794 L832,871 L779,871 Z" fill="#2F3D34" opacity="0.85"/>
    <path d="M0,1067 L0,955.4 L20,957.4 L40,959.3 L60,961.1 L80,962.6 L100,964.0 L120,965.0 L140,965.7 L160,966.1 L180,966.1 L200,965.7 L220,964.9 L240,963.7 L260,962.0 L280,959.8 L300,957.2 L320,954.2 L340,950.7 L360,946.9 L380,942.7 L400,938.2 L420,933.4 L440,928.5 L460,923.3 L480,918.1 L500,912.8 L520,907.6 L540,902.5 L560,897.5 L580,892.7 L600,888.1 L620,883.9 L640,880.1 L660,876.6 L680,873.6 L700,871.0 L720,868.9 L740,867.3 L760,866.2 L780,865.6 L800,865.4 L820,865.7 L840,866.4 L860,867.6 L880,869.0 L900,870.8 L920,872.9 L940,875.3 L960,877.8 L980,880.5 L1000,883.2 L1020,886.1 L1040,889.0 L1060,891.9 L1080,894.7 L1100,897.6 L1120,900.3 L1140,902.9 L1160,905.5 L1180,908.0 L1200,910.3 L1220,912.6 L1240,914.8 L1260,916.9 L1280,918.9 L1300,921.0 L1320,923.0 L1340,925.0 L1360,927.0 L1380,929.1 L1400,931.2 L1420,933.3 L1440,935.5 L1460,937.8 L1480,940.2 L1500,942.6 L1520,945.0 L1540,947.5 L1560,950.0 L1580,952.4 L1600,954.8 L1600,1067 Z" fill="#2F3D34"/>
  <g transform="translate(557.5,74.69000000000001)">
    <rect width="485" height="60" fill="#F7F3EA" opacity="0.9"/>
    <text x="24" y="24" font-family="Helvetica, Arial, sans-serif" font-size="12" letter-spacing="3" fill="#8C5A2E">PLACEHOLDER IMAGE</text>
    <text x="24" y="46" font-family="Georgia, 'Times New Roman', serif" font-size="20" fill="#26311F">Muir of Pearsie Farmhouse</text>
  </g>
</svg>
